<svg xmlns="http://www.w3.org/2000/svg" viewBox="0 0 160 160" width="160" height="160" role="img" aria-label="주의">
<title>주의</title>
<g fill="none" stroke-linecap="round" stroke-linejoin="round">
<path d="M132 84V50" stroke="#ffffff" stroke-width="11"/>
<path d="M132 84V50" stroke="#1a2533" stroke-width="5"/>
<path d="M132 15L153 52H111Z" fill="#ffcf5a" stroke="#ffffff" stroke-width="12" stroke-linejoin="round"/>
<path d="M132 15L153 52H111Z" fill="#ffcf5a" stroke="#1a2533" stroke-width="5" stroke-linejoin="round"/>
<path d="M132 28V39" stroke="#1a2533" stroke-width="5"/>
<circle cx="132" cy="46" r="3" fill="#1a2533"/>
<path d="M72 56Q68 42 60 34 M66 44L56 46 M90 55Q94 40 102 33 M96 42L106 45 M92 118Q98 140 118 140Q138 140 138 124Q138 112 126 113 M46 96Q32 102 28 114" stroke="#ffffff" stroke-width="23"/>
<circle cx="126" cy="113" r="9.5" fill="#ffffff"/>
<ellipse cx="80" cy="86" rx="42" ry="37" fill="#ffffff" stroke="#ffffff" stroke-width="14"/>
<path d="M72 56Q68 42 60 34 M66 44L56 46 M90 55Q94 40 102 33 M96 42L106 45 M92 118Q98 140 118 140Q138 140 138 124Q138 112 126 113 M46 96Q32 102 28 114" stroke="#1a2533" stroke-width="15"/>
<path d="M72 56Q68 42 60 34 M66 44L56 46 M90 55Q94 40 102 33 M96 42L106 45 M92 118Q98 140 118 140Q138 140 138 124Q138 112 126 113 M46 96Q32 102 28 114" stroke="#c7dbf4" stroke-width="7"/>
<path d="M92 118Q98 140 118 140Q138 140 138 124Q138 112 126 113" stroke="#4fa89c" stroke-width="7" stroke-dasharray="9 7" stroke-dashoffset="-6"/>
<circle cx="126" cy="113" r="6" fill="#4fa89c" stroke="#1a2533" stroke-width="3.5"/>
<g fill="#4fa89c" stroke="#1a2533" stroke-width="3">
<circle cx="60" cy="34" r="4"/>
<circle cx="102" cy="33" r="4"/>
</g>
<ellipse cx="80" cy="86" rx="42" ry="37" fill="#c7dbf4" stroke="#1a2533" stroke-width="5"/>
<path d="M48 104Q80 128 112 104" stroke="#a9c4e8" stroke-width="5"/>
<path d="M54 68Q60 59 70 56" stroke="#ffffff" stroke-width="4.5" opacity=".9"/>
<path d="M110 98Q126 96 132 80" stroke="#ffffff" stroke-width="23"/>
<path d="M110 98Q126 96 132 80" stroke="#1a2533" stroke-width="15"/>
<path d="M110 98Q126 96 132 80" stroke="#c7dbf4" stroke-width="7"/>
<path d="M58 73L72 76M102 73L88 76" stroke="#1a2533" stroke-width="3.5"/>
<ellipse cx="66" cy="85" rx="5" ry="5.5" fill="#1a2533"/>
<ellipse cx="94" cy="85" rx="5" ry="5.5" fill="#1a2533"/>
<circle cx="67.6" cy="83" r="1.7" fill="#ffffff"/>
<circle cx="95.6" cy="83" r="1.7" fill="#ffffff"/>
<path d="M74 100L86 100" stroke="#1a2533" stroke-width="4"/>
</g>
</svg>
